M48
;DRILL file {KiCad 4.0.5} date 03/10/17 11:38:06
;FORMAT={-:-/ absolute / metric / decimal}
FMAT,2
METRIC,TZ
T1C0.400
T2C0.762
T3C0.800
T4C1.000
T5C1.016
T6C1.143
T7C1.520
T8C3.048
%
G90
G05
M71
T1
X147.828Y-134.112
X148.336Y-119.38
X151.384Y-136.652
X152.63Y-136.398
X156.21Y-115.57
X167.386Y-120.396
X170.18Y-106.68
X170.434Y-118.11
X173.482Y-113.792
X173.99Y-101.346
X174.244Y-120.65
X174.752Y-115.316
X175.26Y-93.98
X175.26Y-109.22
X176.022Y-108.458
X176.022Y-115.57
X177.8Y-114.3
X179.324Y-110.236
X179.324Y-131.064
X180.086Y-102.87
X180.086Y-132.08
X180.34Y-110.49
X183.134Y-124.46
X183.515Y-150.241
X184.658Y-149.352
X185.42Y-130.81
X186.436Y-113.284
X191.008Y-134.62
X193.548Y-137.16
X193.548Y-142.24
X194.056Y-127.
X195.072Y-125.984
X200.152Y-134.62
X202.184Y-131.064
X207.264Y-122.936
X208.28Y-124.46
X209.296Y-138.684
X210.058Y-137.922
T2
X142.24Y-106.68
X144.78Y-106.68
X147.32Y-106.68
X166.37Y-147.32
X168.91Y-147.32
X171.45Y-147.32
X173.99Y-147.32
T3
X142.24Y-101.6
X142.24Y-110.49
X146.05Y-125.73
X146.05Y-140.97
X147.24Y-101.6
X147.24Y-110.49
X151.13Y-99.06
X153.67Y-105.49
X153.67Y-110.49
X153.67Y-116.84
X156.21Y-125.73
X156.21Y-130.81
X156.21Y-135.81
X156.21Y-140.97
X158.67Y-116.84
X158.75Y-102.87
X158.75Y-113.03
X161.29Y-99.06
X161.37Y-130.81
X161.37Y-137.16
X162.56Y-105.41
X166.37Y-130.81
X166.37Y-137.16
X167.64Y-142.24
X168.91Y-115.57
X171.45Y-131.01
X171.45Y-135.89
X172.64Y-142.24
X172.72Y-105.41
X177.8Y-99.06
X177.8Y-104.14
X177.8Y-109.22
X179.07Y-115.57
X181.61Y-113.03
X181.61Y-115.57
X181.61Y-118.11
X181.61Y-120.65
X181.61Y-123.19
X181.61Y-125.73
X181.61Y-128.27
X181.61Y-130.81
X181.61Y-133.35
X181.61Y-135.89
X181.61Y-138.43
X181.61Y-140.97
X181.61Y-143.51
X181.61Y-146.05
X187.96Y-99.06
X187.96Y-104.14
X187.96Y-109.22
X189.23Y-113.03
X189.23Y-115.57
X189.23Y-118.11
X189.23Y-120.65
X189.23Y-123.19
X189.23Y-125.73
X189.23Y-128.27
X189.23Y-130.81
X189.23Y-133.35
X189.23Y-135.89
X189.23Y-138.43
X189.23Y-140.97
X189.23Y-143.51
X189.23Y-146.05
X191.77Y-96.52
X191.77Y-107.95
X193.04Y-129.62
X193.04Y-134.62
X194.31Y-119.38
X196.85Y-123.19
X196.85Y-128.27
X196.85Y-138.43
X199.39Y-123.19
X201.93Y-96.52
X201.93Y-107.95
X204.47Y-119.38
T4
X140.97Y-114.3
X140.97Y-116.84
X140.97Y-119.38
X140.97Y-121.92
X140.97Y-124.46
X140.97Y-127.
X140.97Y-129.54
X140.97Y-132.08
X140.97Y-134.62
X140.97Y-137.16
X140.97Y-139.7
X140.97Y-142.24
X146.05Y-132.08
X146.05Y-134.62
X166.37Y-100.33
X167.64Y-109.22
X167.64Y-111.76
X168.91Y-100.33
X170.18Y-109.22
X170.18Y-111.76
X171.45Y-100.33
X172.72Y-109.22
X172.72Y-111.76
X176.53Y-119.38
X176.53Y-121.92
X176.53Y-124.46
X176.53Y-127.
X176.53Y-129.54
X176.53Y-132.08
X176.53Y-134.62
X181.61Y-92.71
X181.61Y-95.25
X184.15Y-92.71
X184.15Y-95.25
X186.69Y-92.71
X186.69Y-95.25
X195.58Y-101.6
X195.58Y-113.03
X198.12Y-101.6
X198.12Y-113.03
X200.66Y-101.6
X200.66Y-113.03
X212.09Y-118.11
X212.09Y-120.65
X212.09Y-123.19
X212.09Y-125.73
X212.09Y-130.81
X212.09Y-133.35
X212.09Y-137.16
X212.09Y-139.7
T5
X201.93Y-133.35
X201.93Y-135.89
X201.93Y-138.43
X204.47Y-133.35
X204.47Y-135.89
X204.47Y-138.43
T6
X142.24Y-97.79
X144.78Y-97.79
X147.32Y-97.79
T7
X153.67Y-92.71
X158.75Y-92.71
X166.37Y-92.71
X171.45Y-92.71
X208.28Y-96.52
X208.28Y-101.6
X208.28Y-107.95
X208.28Y-113.03
T8
X141.64Y-90.84
X141.64Y-147.92
X211.42Y-90.84
X211.42Y-147.92
T0
M30
