G04 #@! TF.FileFunction,Legend,Top*
%FSLAX46Y46*%
G04 Gerber Fmt 4.6, Leading zero omitted, Abs format (unit mm)*
G04 Created by KiCad (PCBNEW 4.0.5) date 03/11/17 00:01:21*
%MOMM*%
%LPD*%
G01*
G04 APERTURE LIST*
%ADD10C,0.100000*%
%ADD11C,0.200000*%
%ADD12C,0.120000*%
%ADD13C,0.150000*%
G04 APERTURE END LIST*
D10*
D11*
X144780000Y-144780000D02*
X138430000Y-144780000D01*
X144780000Y-151130000D02*
X144780000Y-144780000D01*
X208280000Y-144780000D02*
X214630000Y-144780000D01*
X208280000Y-151130000D02*
X208280000Y-144780000D01*
X208280000Y-93980000D02*
X208280000Y-87630000D01*
X214630000Y-93980000D02*
X208280000Y-93980000D01*
X144780000Y-93980000D02*
X144780000Y-87630000D01*
X138430000Y-93980000D02*
X144780000Y-93980000D01*
D12*
X193000000Y-110410000D02*
X203240000Y-110410000D01*
X193000000Y-115051000D02*
X203240000Y-115051000D01*
X193000000Y-110410000D02*
X193000000Y-115051000D01*
X203240000Y-110410000D02*
X203240000Y-115051000D01*
X193000000Y-111920000D02*
X203240000Y-111920000D01*
X196270000Y-110410000D02*
X196270000Y-111920000D01*
X199971000Y-110410000D02*
X199971000Y-111920000D01*
X151110000Y-115530000D02*
X161230000Y-115530000D01*
X151110000Y-118150000D02*
X161230000Y-118150000D01*
X151110000Y-115530000D02*
X151110000Y-118150000D01*
X161230000Y-115530000D02*
X161230000Y-118150000D01*
X139680000Y-100290000D02*
X149800000Y-100290000D01*
X139680000Y-102910000D02*
X149800000Y-102910000D01*
X139680000Y-100290000D02*
X139680000Y-102910000D01*
X149800000Y-100290000D02*
X149800000Y-102910000D01*
X139680000Y-109180000D02*
X149800000Y-109180000D01*
X139680000Y-111800000D02*
X149800000Y-111800000D01*
X139680000Y-109180000D02*
X139680000Y-111800000D01*
X149800000Y-109180000D02*
X149800000Y-111800000D01*
X152360000Y-113050000D02*
X152360000Y-102930000D01*
X154980000Y-113050000D02*
X154980000Y-102930000D01*
X152360000Y-113050000D02*
X154980000Y-113050000D01*
X152360000Y-102930000D02*
X154980000Y-102930000D01*
X191730000Y-137180000D02*
X191730000Y-127060000D01*
X194350000Y-137180000D02*
X194350000Y-127060000D01*
X191730000Y-137180000D02*
X194350000Y-137180000D01*
X191730000Y-127060000D02*
X194350000Y-127060000D01*
X168930000Y-132120000D02*
X158810000Y-132120000D01*
X168930000Y-129500000D02*
X158810000Y-129500000D01*
X168930000Y-132120000D02*
X168930000Y-129500000D01*
X158810000Y-132120000D02*
X158810000Y-129500000D01*
X168930000Y-138470000D02*
X158810000Y-138470000D01*
X168930000Y-135850000D02*
X158810000Y-135850000D01*
X168930000Y-138470000D02*
X168930000Y-135850000D01*
X158810000Y-138470000D02*
X158810000Y-135850000D01*
X157520000Y-128250000D02*
X157520000Y-138370000D01*
X154900000Y-128250000D02*
X154900000Y-138370000D01*
X157520000Y-128250000D02*
X154900000Y-128250000D01*
X157520000Y-138370000D02*
X154900000Y-138370000D01*
X165080000Y-140930000D02*
X175200000Y-140930000D01*
X165080000Y-143550000D02*
X175200000Y-143550000D01*
X165080000Y-140930000D02*
X165080000Y-143550000D01*
X175200000Y-140930000D02*
X175200000Y-143550000D01*
X186420000Y-111640000D02*
G75*
G02X184420000Y-111640000I-1000000J0D01*
G01*
X184420000Y-111640000D02*
X182650000Y-111640000D01*
X182650000Y-111640000D02*
X182650000Y-147440000D01*
X182650000Y-147440000D02*
X188190000Y-147440000D01*
X188190000Y-147440000D02*
X188190000Y-111640000D01*
X188190000Y-111640000D02*
X186420000Y-111640000D01*
X151130000Y-90170000D02*
X161290000Y-90170000D01*
X151130000Y-88900000D02*
X151130000Y-96520000D01*
X151130000Y-96520000D02*
X161290000Y-96520000D01*
X161290000Y-96520000D02*
X161290000Y-88900000D01*
X161290000Y-88900000D02*
X151130000Y-88900000D01*
X163830000Y-90170000D02*
X173990000Y-90170000D01*
X163830000Y-88900000D02*
X163830000Y-96520000D01*
X163830000Y-96520000D02*
X173990000Y-96520000D01*
X173990000Y-96520000D02*
X173990000Y-88900000D01*
X173990000Y-88900000D02*
X163830000Y-88900000D01*
X210820000Y-93980000D02*
X210820000Y-104140000D01*
X212090000Y-93980000D02*
X204470000Y-93980000D01*
X204470000Y-93980000D02*
X204470000Y-104140000D01*
X204470000Y-104140000D02*
X212090000Y-104140000D01*
X212090000Y-104140000D02*
X212090000Y-93980000D01*
X210820000Y-105410000D02*
X210820000Y-115570000D01*
X212090000Y-105410000D02*
X204470000Y-105410000D01*
X204470000Y-105410000D02*
X204470000Y-115570000D01*
X204470000Y-115570000D02*
X212090000Y-115570000D01*
X212090000Y-115570000D02*
X212090000Y-105410000D01*
X139580000Y-115570000D02*
X139580000Y-143630000D01*
X139580000Y-143630000D02*
X142360000Y-143630000D01*
X142360000Y-143630000D02*
X142360000Y-115570000D01*
X142360000Y-115570000D02*
X139580000Y-115570000D01*
X139580000Y-114300000D02*
X139580000Y-112910000D01*
X139580000Y-112910000D02*
X140970000Y-112910000D01*
X208000000Y-128020000D02*
X208000000Y-143760000D01*
X208000000Y-143760000D02*
X198400000Y-143760000D01*
X198400000Y-143760000D02*
X198400000Y-128020000D01*
X198400000Y-128020000D02*
X208000000Y-128020000D01*
X210700000Y-138430000D02*
X210700000Y-141090000D01*
X210700000Y-141090000D02*
X213480000Y-141090000D01*
X213480000Y-141090000D02*
X213480000Y-138430000D01*
X213480000Y-138430000D02*
X210700000Y-138430000D01*
X210700000Y-137160000D02*
X210700000Y-135770000D01*
X210700000Y-135770000D02*
X212090000Y-135770000D01*
X175140000Y-120650000D02*
X175140000Y-136010000D01*
X175140000Y-136010000D02*
X177920000Y-136010000D01*
X177920000Y-136010000D02*
X177920000Y-120650000D01*
X177920000Y-120650000D02*
X175140000Y-120650000D01*
X175140000Y-119380000D02*
X175140000Y-117990000D01*
X175140000Y-117990000D02*
X176530000Y-117990000D01*
X213480000Y-124460000D02*
X213480000Y-116720000D01*
X213480000Y-116720000D02*
X210700000Y-116720000D01*
X210700000Y-116720000D02*
X210700000Y-124460000D01*
X210700000Y-124460000D02*
X213480000Y-124460000D01*
X213480000Y-125730000D02*
X213480000Y-127120000D01*
X213480000Y-127120000D02*
X212090000Y-127120000D01*
X213480000Y-132080000D02*
X213480000Y-129420000D01*
X213480000Y-129420000D02*
X210700000Y-129420000D01*
X210700000Y-129420000D02*
X210700000Y-132080000D01*
X210700000Y-132080000D02*
X213480000Y-132080000D01*
X213480000Y-133350000D02*
X213480000Y-134740000D01*
X213480000Y-134740000D02*
X212090000Y-134740000D01*
X168910000Y-113150000D02*
X174110000Y-113150000D01*
X174110000Y-113150000D02*
X174110000Y-107830000D01*
X174110000Y-107830000D02*
X166250000Y-107830000D01*
X166250000Y-107830000D02*
X166250000Y-110490000D01*
X166250000Y-110490000D02*
X168910000Y-110490000D01*
X168910000Y-110490000D02*
X168910000Y-113150000D01*
X167640000Y-113150000D02*
X166250000Y-113150000D01*
X166250000Y-113150000D02*
X166250000Y-111760000D01*
X182880000Y-96640000D02*
X188080000Y-96640000D01*
X188080000Y-96640000D02*
X188080000Y-91320000D01*
X188080000Y-91320000D02*
X180220000Y-91320000D01*
X180220000Y-91320000D02*
X180220000Y-93980000D01*
X180220000Y-93980000D02*
X182880000Y-93980000D01*
X182880000Y-93980000D02*
X182880000Y-96640000D01*
X181610000Y-96640000D02*
X180220000Y-96640000D01*
X180220000Y-96640000D02*
X180220000Y-95250000D01*
X144660000Y-133350000D02*
X144660000Y-136010000D01*
X144660000Y-136010000D02*
X147440000Y-136010000D01*
X147440000Y-136010000D02*
X147440000Y-133350000D01*
X147440000Y-133350000D02*
X144660000Y-133350000D01*
X144660000Y-132080000D02*
X144660000Y-130690000D01*
X144660000Y-130690000D02*
X146050000Y-130690000D01*
X163790000Y-97710000D02*
X174030000Y-97710000D01*
X163790000Y-102351000D02*
X174030000Y-102351000D01*
X163790000Y-97710000D02*
X163790000Y-102351000D01*
X174030000Y-97710000D02*
X174030000Y-102351000D01*
X163790000Y-99220000D02*
X174030000Y-99220000D01*
X167060000Y-97710000D02*
X167060000Y-99220000D01*
X170761000Y-97710000D02*
X170761000Y-99220000D01*
X193000000Y-98980000D02*
X203240000Y-98980000D01*
X193000000Y-103621000D02*
X203240000Y-103621000D01*
X193000000Y-98980000D02*
X193000000Y-103621000D01*
X203240000Y-98980000D02*
X203240000Y-103621000D01*
X193000000Y-100490000D02*
X203240000Y-100490000D01*
X196270000Y-98980000D02*
X196270000Y-100490000D01*
X199971000Y-98980000D02*
X199971000Y-100490000D01*
X195540000Y-136560000D02*
X198160000Y-136560000D01*
X198160000Y-136560000D02*
X198160000Y-130140000D01*
X198160000Y-130140000D02*
X195540000Y-130140000D01*
X195540000Y-130140000D02*
X195540000Y-136560000D01*
X196850000Y-137450000D02*
X196850000Y-136560000D01*
X196850000Y-129250000D02*
X196850000Y-130140000D01*
X170780000Y-114260000D02*
X170780000Y-116880000D01*
X170780000Y-116880000D02*
X177200000Y-116880000D01*
X177200000Y-116880000D02*
X177200000Y-114260000D01*
X177200000Y-114260000D02*
X170780000Y-114260000D01*
X169890000Y-115570000D02*
X170780000Y-115570000D01*
X178090000Y-115570000D02*
X177200000Y-115570000D01*
X196180000Y-118070000D02*
X196180000Y-120690000D01*
X196180000Y-120690000D02*
X202600000Y-120690000D01*
X202600000Y-120690000D02*
X202600000Y-118070000D01*
X202600000Y-118070000D02*
X196180000Y-118070000D01*
X195290000Y-119380000D02*
X196180000Y-119380000D01*
X203490000Y-119380000D02*
X202600000Y-119380000D01*
X196800000Y-125340000D02*
X199450000Y-125340000D01*
X196800000Y-121040000D02*
X199450000Y-121040000D01*
X196774524Y-121055612D02*
G75*
G03X196800000Y-125340000I1325476J-2134388D01*
G01*
X199478027Y-125322144D02*
G75*
G03X199450000Y-121040000I-1378027J2132144D01*
G01*
X153000000Y-97750000D02*
X153000000Y-100370000D01*
X153000000Y-100370000D02*
X159420000Y-100370000D01*
X159420000Y-100370000D02*
X159420000Y-97750000D01*
X159420000Y-97750000D02*
X153000000Y-97750000D01*
X152110000Y-99060000D02*
X153000000Y-99060000D01*
X160310000Y-99060000D02*
X159420000Y-99060000D01*
X160060000Y-104740000D02*
X157440000Y-104740000D01*
X157440000Y-104740000D02*
X157440000Y-111160000D01*
X157440000Y-111160000D02*
X160060000Y-111160000D01*
X160060000Y-111160000D02*
X160060000Y-104740000D01*
X158750000Y-103850000D02*
X158750000Y-104740000D01*
X158750000Y-112050000D02*
X158750000Y-111160000D01*
X147920000Y-124420000D02*
X147920000Y-127040000D01*
X147920000Y-127040000D02*
X154340000Y-127040000D01*
X154340000Y-127040000D02*
X154340000Y-124420000D01*
X154340000Y-124420000D02*
X147920000Y-124420000D01*
X147030000Y-125730000D02*
X147920000Y-125730000D01*
X155230000Y-125730000D02*
X154340000Y-125730000D01*
X147920000Y-139660000D02*
X147920000Y-142280000D01*
X147920000Y-142280000D02*
X154340000Y-142280000D01*
X154340000Y-142280000D02*
X154340000Y-139660000D01*
X154340000Y-139660000D02*
X147920000Y-139660000D01*
X147030000Y-140970000D02*
X147920000Y-140970000D01*
X155230000Y-140970000D02*
X154340000Y-140970000D01*
X164430000Y-104100000D02*
X164430000Y-106720000D01*
X164430000Y-106720000D02*
X170850000Y-106720000D01*
X170850000Y-106720000D02*
X170850000Y-104100000D01*
X170850000Y-104100000D02*
X164430000Y-104100000D01*
X163540000Y-105410000D02*
X164430000Y-105410000D01*
X171740000Y-105410000D02*
X170850000Y-105410000D01*
X179670000Y-102830000D02*
X179670000Y-105450000D01*
X179670000Y-105450000D02*
X186090000Y-105450000D01*
X186090000Y-105450000D02*
X186090000Y-102830000D01*
X186090000Y-102830000D02*
X179670000Y-102830000D01*
X178780000Y-104140000D02*
X179670000Y-104140000D01*
X186980000Y-104140000D02*
X186090000Y-104140000D01*
X193640000Y-106640000D02*
X193640000Y-109260000D01*
X193640000Y-109260000D02*
X200060000Y-109260000D01*
X200060000Y-109260000D02*
X200060000Y-106640000D01*
X200060000Y-106640000D02*
X193640000Y-106640000D01*
X192750000Y-107950000D02*
X193640000Y-107950000D01*
X200950000Y-107950000D02*
X200060000Y-107950000D01*
X186090000Y-110530000D02*
X186090000Y-107910000D01*
X186090000Y-107910000D02*
X179670000Y-107910000D01*
X179670000Y-107910000D02*
X179670000Y-110530000D01*
X179670000Y-110530000D02*
X186090000Y-110530000D01*
X186980000Y-109220000D02*
X186090000Y-109220000D01*
X178780000Y-109220000D02*
X179670000Y-109220000D01*
X193640000Y-95210000D02*
X193640000Y-97830000D01*
X193640000Y-97830000D02*
X200060000Y-97830000D01*
X200060000Y-97830000D02*
X200060000Y-95210000D01*
X200060000Y-95210000D02*
X193640000Y-95210000D01*
X192750000Y-96520000D02*
X193640000Y-96520000D01*
X200950000Y-96520000D02*
X200060000Y-96520000D01*
X186090000Y-100370000D02*
X186090000Y-97750000D01*
X186090000Y-97750000D02*
X179670000Y-97750000D01*
X179670000Y-97750000D02*
X179670000Y-100370000D01*
X179670000Y-100370000D02*
X186090000Y-100370000D01*
X186980000Y-99060000D02*
X186090000Y-99060000D01*
X178780000Y-99060000D02*
X179670000Y-99060000D01*
D13*
X149860000Y-106680000D02*
X149860000Y-104140000D01*
X149860000Y-104140000D02*
X139700000Y-104140000D01*
X139700000Y-104140000D02*
X139700000Y-106680000D01*
X139700000Y-106680000D02*
X139700000Y-107950000D01*
X139700000Y-107950000D02*
X149860000Y-107950000D01*
X149860000Y-107950000D02*
X149860000Y-106680000D01*
X149606000Y-96139000D02*
X149606000Y-99568000D01*
X139954000Y-96139000D02*
X139954000Y-99568000D01*
X150114000Y-94996000D02*
X139446000Y-94996000D01*
X146558000Y-96012000D02*
X146558000Y-94742000D01*
X143002000Y-96012000D02*
X143002000Y-94742000D01*
X139446000Y-96139000D02*
X150114000Y-96139000D01*
X150114000Y-99568000D02*
X139446000Y-99568000D01*
X139446000Y-94742000D02*
X139446000Y-99568000D01*
X150114000Y-94742000D02*
X150114000Y-99568000D01*
X150114000Y-94742000D02*
X139446000Y-94742000D01*
X163830000Y-144780000D02*
X176530000Y-144780000D01*
X176530000Y-144780000D02*
X176530000Y-149860000D01*
X176530000Y-149860000D02*
X163830000Y-149860000D01*
X163830000Y-149860000D02*
X163830000Y-144780000D01*
D12*
X173975000Y-136575000D02*
G75*
G02X168925000Y-136575000I-2525000J0D01*
G01*
X173975000Y-130325000D02*
G75*
G03X168925000Y-130325000I-2525000J0D01*
G01*
X168925000Y-136575000D02*
X168925000Y-130325000D01*
X173975000Y-136575000D02*
X173975000Y-130325000D01*
D13*
X148930000Y-131150000D02*
X153330000Y-131150000D01*
X153330000Y-131150000D02*
X153330000Y-135550000D01*
X153330000Y-135550000D02*
X148930000Y-135550000D01*
X148930000Y-135550000D02*
X148930000Y-131150000D01*
D12*
X143926000Y-90840000D02*
G75*
G03X143926000Y-90840000I-2286000J0D01*
G01*
X213706000Y-90840000D02*
G75*
G03X213706000Y-90840000I-2286000J0D01*
G01*
X143926000Y-147920000D02*
G75*
G03X143926000Y-147920000I-2286000J0D01*
G01*
X213706000Y-147920000D02*
G75*
G03X213706000Y-147920000I-2286000J0D01*
G01*
D13*
X198024762Y-111537619D02*
X197929524Y-111490000D01*
X197834286Y-111394762D01*
X197691429Y-111251905D01*
X197596190Y-111204286D01*
X197500952Y-111204286D01*
X197548571Y-111442381D02*
X197453333Y-111394762D01*
X197358095Y-111299524D01*
X197310476Y-111109048D01*
X197310476Y-110775714D01*
X197358095Y-110585238D01*
X197453333Y-110490000D01*
X197548571Y-110442381D01*
X197739048Y-110442381D01*
X197834286Y-110490000D01*
X197929524Y-110585238D01*
X197977143Y-110775714D01*
X197977143Y-111109048D01*
X197929524Y-111299524D01*
X197834286Y-111394762D01*
X197739048Y-111442381D01*
X197548571Y-111442381D01*
X198310476Y-110442381D02*
X198929524Y-110442381D01*
X198596190Y-110823333D01*
X198739048Y-110823333D01*
X198834286Y-110870952D01*
X198881905Y-110918571D01*
X198929524Y-111013810D01*
X198929524Y-111251905D01*
X198881905Y-111347143D01*
X198834286Y-111394762D01*
X198739048Y-111442381D01*
X198453333Y-111442381D01*
X198358095Y-111394762D01*
X198310476Y-111347143D01*
X156043334Y-117197143D02*
X155995715Y-117244762D01*
X155852858Y-117292381D01*
X155757620Y-117292381D01*
X155614762Y-117244762D01*
X155519524Y-117149524D01*
X155471905Y-117054286D01*
X155424286Y-116863810D01*
X155424286Y-116720952D01*
X155471905Y-116530476D01*
X155519524Y-116435238D01*
X155614762Y-116340000D01*
X155757620Y-116292381D01*
X155852858Y-116292381D01*
X155995715Y-116340000D01*
X156043334Y-116387619D01*
X156995715Y-117292381D02*
X156424286Y-117292381D01*
X156710000Y-117292381D02*
X156710000Y-116292381D01*
X156614762Y-116435238D01*
X156519524Y-116530476D01*
X156424286Y-116578095D01*
X144613334Y-101957143D02*
X144565715Y-102004762D01*
X144422858Y-102052381D01*
X144327620Y-102052381D01*
X144184762Y-102004762D01*
X144089524Y-101909524D01*
X144041905Y-101814286D01*
X143994286Y-101623810D01*
X143994286Y-101480952D01*
X144041905Y-101290476D01*
X144089524Y-101195238D01*
X144184762Y-101100000D01*
X144327620Y-101052381D01*
X144422858Y-101052381D01*
X144565715Y-101100000D01*
X144613334Y-101147619D01*
X144994286Y-101147619D02*
X145041905Y-101100000D01*
X145137143Y-101052381D01*
X145375239Y-101052381D01*
X145470477Y-101100000D01*
X145518096Y-101147619D01*
X145565715Y-101242857D01*
X145565715Y-101338095D01*
X145518096Y-101480952D01*
X144946667Y-102052381D01*
X145565715Y-102052381D01*
X144613334Y-110847143D02*
X144565715Y-110894762D01*
X144422858Y-110942381D01*
X144327620Y-110942381D01*
X144184762Y-110894762D01*
X144089524Y-110799524D01*
X144041905Y-110704286D01*
X143994286Y-110513810D01*
X143994286Y-110370952D01*
X144041905Y-110180476D01*
X144089524Y-110085238D01*
X144184762Y-109990000D01*
X144327620Y-109942381D01*
X144422858Y-109942381D01*
X144565715Y-109990000D01*
X144613334Y-110037619D01*
X144946667Y-109942381D02*
X145565715Y-109942381D01*
X145232381Y-110323333D01*
X145375239Y-110323333D01*
X145470477Y-110370952D01*
X145518096Y-110418571D01*
X145565715Y-110513810D01*
X145565715Y-110751905D01*
X145518096Y-110847143D01*
X145470477Y-110894762D01*
X145375239Y-110942381D01*
X145089524Y-110942381D01*
X144994286Y-110894762D01*
X144946667Y-110847143D01*
X154027143Y-108116666D02*
X154074762Y-108164285D01*
X154122381Y-108307142D01*
X154122381Y-108402380D01*
X154074762Y-108545238D01*
X153979524Y-108640476D01*
X153884286Y-108688095D01*
X153693810Y-108735714D01*
X153550952Y-108735714D01*
X153360476Y-108688095D01*
X153265238Y-108640476D01*
X153170000Y-108545238D01*
X153122381Y-108402380D01*
X153122381Y-108307142D01*
X153170000Y-108164285D01*
X153217619Y-108116666D01*
X153455714Y-107259523D02*
X154122381Y-107259523D01*
X153074762Y-107497619D02*
X153789048Y-107735714D01*
X153789048Y-107116666D01*
X193397143Y-132246666D02*
X193444762Y-132294285D01*
X193492381Y-132437142D01*
X193492381Y-132532380D01*
X193444762Y-132675238D01*
X193349524Y-132770476D01*
X193254286Y-132818095D01*
X193063810Y-132865714D01*
X192920952Y-132865714D01*
X192730476Y-132818095D01*
X192635238Y-132770476D01*
X192540000Y-132675238D01*
X192492381Y-132532380D01*
X192492381Y-132437142D01*
X192540000Y-132294285D01*
X192587619Y-132246666D01*
X192492381Y-131341904D02*
X192492381Y-131818095D01*
X192968571Y-131865714D01*
X192920952Y-131818095D01*
X192873333Y-131722857D01*
X192873333Y-131484761D01*
X192920952Y-131389523D01*
X192968571Y-131341904D01*
X193063810Y-131294285D01*
X193301905Y-131294285D01*
X193397143Y-131341904D01*
X193444762Y-131389523D01*
X193492381Y-131484761D01*
X193492381Y-131722857D01*
X193444762Y-131818095D01*
X193397143Y-131865714D01*
X163663334Y-131167143D02*
X163615715Y-131214762D01*
X163472858Y-131262381D01*
X163377620Y-131262381D01*
X163234762Y-131214762D01*
X163139524Y-131119524D01*
X163091905Y-131024286D01*
X163044286Y-130833810D01*
X163044286Y-130690952D01*
X163091905Y-130500476D01*
X163139524Y-130405238D01*
X163234762Y-130310000D01*
X163377620Y-130262381D01*
X163472858Y-130262381D01*
X163615715Y-130310000D01*
X163663334Y-130357619D01*
X164520477Y-130262381D02*
X164330000Y-130262381D01*
X164234762Y-130310000D01*
X164187143Y-130357619D01*
X164091905Y-130500476D01*
X164044286Y-130690952D01*
X164044286Y-131071905D01*
X164091905Y-131167143D01*
X164139524Y-131214762D01*
X164234762Y-131262381D01*
X164425239Y-131262381D01*
X164520477Y-131214762D01*
X164568096Y-131167143D01*
X164615715Y-131071905D01*
X164615715Y-130833810D01*
X164568096Y-130738571D01*
X164520477Y-130690952D01*
X164425239Y-130643333D01*
X164234762Y-130643333D01*
X164139524Y-130690952D01*
X164091905Y-130738571D01*
X164044286Y-130833810D01*
X163663334Y-137517143D02*
X163615715Y-137564762D01*
X163472858Y-137612381D01*
X163377620Y-137612381D01*
X163234762Y-137564762D01*
X163139524Y-137469524D01*
X163091905Y-137374286D01*
X163044286Y-137183810D01*
X163044286Y-137040952D01*
X163091905Y-136850476D01*
X163139524Y-136755238D01*
X163234762Y-136660000D01*
X163377620Y-136612381D01*
X163472858Y-136612381D01*
X163615715Y-136660000D01*
X163663334Y-136707619D01*
X163996667Y-136612381D02*
X164663334Y-136612381D01*
X164234762Y-137612381D01*
X156567143Y-133516666D02*
X156614762Y-133564285D01*
X156662381Y-133707142D01*
X156662381Y-133802380D01*
X156614762Y-133945238D01*
X156519524Y-134040476D01*
X156424286Y-134088095D01*
X156233810Y-134135714D01*
X156090952Y-134135714D01*
X155900476Y-134088095D01*
X155805238Y-134040476D01*
X155710000Y-133945238D01*
X155662381Y-133802380D01*
X155662381Y-133707142D01*
X155710000Y-133564285D01*
X155757619Y-133516666D01*
X156090952Y-132945238D02*
X156043333Y-133040476D01*
X155995714Y-133088095D01*
X155900476Y-133135714D01*
X155852857Y-133135714D01*
X155757619Y-133088095D01*
X155710000Y-133040476D01*
X155662381Y-132945238D01*
X155662381Y-132754761D01*
X155710000Y-132659523D01*
X155757619Y-132611904D01*
X155852857Y-132564285D01*
X155900476Y-132564285D01*
X155995714Y-132611904D01*
X156043333Y-132659523D01*
X156090952Y-132754761D01*
X156090952Y-132945238D01*
X156138571Y-133040476D01*
X156186190Y-133088095D01*
X156281429Y-133135714D01*
X156471905Y-133135714D01*
X156567143Y-133088095D01*
X156614762Y-133040476D01*
X156662381Y-132945238D01*
X156662381Y-132754761D01*
X156614762Y-132659523D01*
X156567143Y-132611904D01*
X156471905Y-132564285D01*
X156281429Y-132564285D01*
X156186190Y-132611904D01*
X156138571Y-132659523D01*
X156090952Y-132754761D01*
X170013334Y-142597143D02*
X169965715Y-142644762D01*
X169822858Y-142692381D01*
X169727620Y-142692381D01*
X169584762Y-142644762D01*
X169489524Y-142549524D01*
X169441905Y-142454286D01*
X169394286Y-142263810D01*
X169394286Y-142120952D01*
X169441905Y-141930476D01*
X169489524Y-141835238D01*
X169584762Y-141740000D01*
X169727620Y-141692381D01*
X169822858Y-141692381D01*
X169965715Y-141740000D01*
X170013334Y-141787619D01*
X170489524Y-142692381D02*
X170680000Y-142692381D01*
X170775239Y-142644762D01*
X170822858Y-142597143D01*
X170918096Y-142454286D01*
X170965715Y-142263810D01*
X170965715Y-141882857D01*
X170918096Y-141787619D01*
X170870477Y-141740000D01*
X170775239Y-141692381D01*
X170584762Y-141692381D01*
X170489524Y-141740000D01*
X170441905Y-141787619D01*
X170394286Y-141882857D01*
X170394286Y-142120952D01*
X170441905Y-142216190D01*
X170489524Y-142263810D01*
X170584762Y-142311429D01*
X170775239Y-142311429D01*
X170870477Y-142263810D01*
X170918096Y-142216190D01*
X170965715Y-142120952D01*
X184443810Y-114752381D02*
X184443810Y-113752381D01*
X185491429Y-114657143D02*
X185443810Y-114704762D01*
X185300953Y-114752381D01*
X185205715Y-114752381D01*
X185062857Y-114704762D01*
X184967619Y-114609524D01*
X184920000Y-114514286D01*
X184872381Y-114323810D01*
X184872381Y-114180952D01*
X184920000Y-113990476D01*
X184967619Y-113895238D01*
X185062857Y-113800000D01*
X185205715Y-113752381D01*
X185300953Y-113752381D01*
X185443810Y-113800000D01*
X185491429Y-113847619D01*
X186443810Y-114752381D02*
X185872381Y-114752381D01*
X186158095Y-114752381D02*
X186158095Y-113752381D01*
X186062857Y-113895238D01*
X185967619Y-113990476D01*
X185872381Y-114038095D01*
X155876667Y-94702381D02*
X155876667Y-95416667D01*
X155829047Y-95559524D01*
X155733809Y-95654762D01*
X155590952Y-95702381D01*
X155495714Y-95702381D01*
X156876667Y-95702381D02*
X156305238Y-95702381D01*
X156590952Y-95702381D02*
X156590952Y-94702381D01*
X156495714Y-94845238D01*
X156400476Y-94940476D01*
X156305238Y-94988095D01*
X168576667Y-94702381D02*
X168576667Y-95416667D01*
X168529047Y-95559524D01*
X168433809Y-95654762D01*
X168290952Y-95702381D01*
X168195714Y-95702381D01*
X168957619Y-94702381D02*
X169576667Y-94702381D01*
X169243333Y-95083333D01*
X169386191Y-95083333D01*
X169481429Y-95130952D01*
X169529048Y-95178571D01*
X169576667Y-95273810D01*
X169576667Y-95511905D01*
X169529048Y-95607143D01*
X169481429Y-95654762D01*
X169386191Y-95702381D01*
X169100476Y-95702381D01*
X169005238Y-95654762D01*
X168957619Y-95607143D01*
X205192381Y-99393333D02*
X205906667Y-99393333D01*
X206049524Y-99440953D01*
X206144762Y-99536191D01*
X206192381Y-99679048D01*
X206192381Y-99774286D01*
X205525714Y-98488571D02*
X206192381Y-98488571D01*
X205144762Y-98726667D02*
X205859048Y-98964762D01*
X205859048Y-98345714D01*
X205192381Y-110823333D02*
X205906667Y-110823333D01*
X206049524Y-110870953D01*
X206144762Y-110966191D01*
X206192381Y-111109048D01*
X206192381Y-111204286D01*
X205192381Y-109870952D02*
X205192381Y-110347143D01*
X205668571Y-110394762D01*
X205620952Y-110347143D01*
X205573333Y-110251905D01*
X205573333Y-110013809D01*
X205620952Y-109918571D01*
X205668571Y-109870952D01*
X205763810Y-109823333D01*
X206001905Y-109823333D01*
X206097143Y-109870952D01*
X206144762Y-109918571D01*
X206192381Y-110013809D01*
X206192381Y-110251905D01*
X206144762Y-110347143D01*
X206097143Y-110394762D01*
X142771905Y-116022381D02*
X142771905Y-115022381D01*
X143152858Y-115022381D01*
X143248096Y-115070000D01*
X143295715Y-115117619D01*
X143343334Y-115212857D01*
X143343334Y-115355714D01*
X143295715Y-115450952D01*
X143248096Y-115498571D01*
X143152858Y-115546190D01*
X142771905Y-115546190D01*
X144295715Y-116022381D02*
X143724286Y-116022381D01*
X144010000Y-116022381D02*
X144010000Y-115022381D01*
X143914762Y-115165238D01*
X143819524Y-115260476D01*
X143724286Y-115308095D01*
X207462381Y-136628095D02*
X206462381Y-136628095D01*
X206462381Y-136247142D01*
X206510000Y-136151904D01*
X206557619Y-136104285D01*
X206652857Y-136056666D01*
X206795714Y-136056666D01*
X206890952Y-136104285D01*
X206938571Y-136151904D01*
X206986190Y-136247142D01*
X206986190Y-136628095D01*
X206557619Y-135675714D02*
X206510000Y-135628095D01*
X206462381Y-135532857D01*
X206462381Y-135294761D01*
X206510000Y-135199523D01*
X206557619Y-135151904D01*
X206652857Y-135104285D01*
X206748095Y-135104285D01*
X206890952Y-135151904D01*
X207462381Y-135723333D01*
X207462381Y-135104285D01*
D12*
X200662381Y-133084285D02*
X200662381Y-133655714D01*
X200662381Y-133370000D02*
X199662381Y-133370000D01*
X199805238Y-133465238D01*
X199900476Y-133560476D01*
X199948095Y-133655714D01*
D13*
X211351905Y-135472381D02*
X211351905Y-134472381D01*
X211732858Y-134472381D01*
X211828096Y-134520000D01*
X211875715Y-134567619D01*
X211923334Y-134662857D01*
X211923334Y-134805714D01*
X211875715Y-134900952D01*
X211828096Y-134948571D01*
X211732858Y-134996190D01*
X211351905Y-134996190D01*
X212256667Y-134472381D02*
X212875715Y-134472381D01*
X212542381Y-134853333D01*
X212685239Y-134853333D01*
X212780477Y-134900952D01*
X212828096Y-134948571D01*
X212875715Y-135043810D01*
X212875715Y-135281905D01*
X212828096Y-135377143D01*
X212780477Y-135424762D01*
X212685239Y-135472381D01*
X212399524Y-135472381D01*
X212304286Y-135424762D01*
X212256667Y-135377143D01*
X173251905Y-124912381D02*
X173251905Y-123912381D01*
X173632858Y-123912381D01*
X173728096Y-123960000D01*
X173775715Y-124007619D01*
X173823334Y-124102857D01*
X173823334Y-124245714D01*
X173775715Y-124340952D01*
X173728096Y-124388571D01*
X173632858Y-124436190D01*
X173251905Y-124436190D01*
X174680477Y-124245714D02*
X174680477Y-124912381D01*
X174442381Y-123864762D02*
X174204286Y-124579048D01*
X174823334Y-124579048D01*
X211351905Y-128572381D02*
X211351905Y-127572381D01*
X211732858Y-127572381D01*
X211828096Y-127620000D01*
X211875715Y-127667619D01*
X211923334Y-127762857D01*
X211923334Y-127905714D01*
X211875715Y-128000952D01*
X211828096Y-128048571D01*
X211732858Y-128096190D01*
X211351905Y-128096190D01*
X212828096Y-127572381D02*
X212351905Y-127572381D01*
X212304286Y-128048571D01*
X212351905Y-128000952D01*
X212447143Y-127953333D01*
X212685239Y-127953333D01*
X212780477Y-128000952D01*
X212828096Y-128048571D01*
X212875715Y-128143810D01*
X212875715Y-128381905D01*
X212828096Y-128477143D01*
X212780477Y-128524762D01*
X212685239Y-128572381D01*
X212447143Y-128572381D01*
X212351905Y-128524762D01*
X212304286Y-128477143D01*
X211351905Y-142692381D02*
X211351905Y-141692381D01*
X211732858Y-141692381D01*
X211828096Y-141740000D01*
X211875715Y-141787619D01*
X211923334Y-141882857D01*
X211923334Y-142025714D01*
X211875715Y-142120952D01*
X211828096Y-142168571D01*
X211732858Y-142216190D01*
X211351905Y-142216190D01*
X212780477Y-141692381D02*
X212590000Y-141692381D01*
X212494762Y-141740000D01*
X212447143Y-141787619D01*
X212351905Y-141930476D01*
X212304286Y-142120952D01*
X212304286Y-142501905D01*
X212351905Y-142597143D01*
X212399524Y-142644762D01*
X212494762Y-142692381D01*
X212685239Y-142692381D01*
X212780477Y-142644762D01*
X212828096Y-142597143D01*
X212875715Y-142501905D01*
X212875715Y-142263810D01*
X212828096Y-142168571D01*
X212780477Y-142120952D01*
X212685239Y-142073333D01*
X212494762Y-142073333D01*
X212399524Y-142120952D01*
X212351905Y-142168571D01*
X212304286Y-142263810D01*
X165702381Y-111228095D02*
X164702381Y-111228095D01*
X164702381Y-110847142D01*
X164750000Y-110751904D01*
X164797619Y-110704285D01*
X164892857Y-110656666D01*
X165035714Y-110656666D01*
X165130952Y-110704285D01*
X165178571Y-110751904D01*
X165226190Y-110847142D01*
X165226190Y-111228095D01*
X164702381Y-110323333D02*
X164702381Y-109656666D01*
X165702381Y-110085238D01*
X179672381Y-94718095D02*
X178672381Y-94718095D01*
X178672381Y-94337142D01*
X178720000Y-94241904D01*
X178767619Y-94194285D01*
X178862857Y-94146666D01*
X179005714Y-94146666D01*
X179100952Y-94194285D01*
X179148571Y-94241904D01*
X179196190Y-94337142D01*
X179196190Y-94718095D01*
X179100952Y-93575238D02*
X179053333Y-93670476D01*
X179005714Y-93718095D01*
X178910476Y-93765714D01*
X178862857Y-93765714D01*
X178767619Y-93718095D01*
X178720000Y-93670476D01*
X178672381Y-93575238D01*
X178672381Y-93384761D01*
X178720000Y-93289523D01*
X178767619Y-93241904D01*
X178862857Y-93194285D01*
X178910476Y-93194285D01*
X179005714Y-93241904D01*
X179053333Y-93289523D01*
X179100952Y-93384761D01*
X179100952Y-93575238D01*
X179148571Y-93670476D01*
X179196190Y-93718095D01*
X179291429Y-93765714D01*
X179481905Y-93765714D01*
X179577143Y-93718095D01*
X179624762Y-93670476D01*
X179672381Y-93575238D01*
X179672381Y-93384761D01*
X179624762Y-93289523D01*
X179577143Y-93241904D01*
X179481905Y-93194285D01*
X179291429Y-93194285D01*
X179196190Y-93241904D01*
X179148571Y-93289523D01*
X179100952Y-93384761D01*
X145311905Y-130142381D02*
X145311905Y-129142381D01*
X145692858Y-129142381D01*
X145788096Y-129190000D01*
X145835715Y-129237619D01*
X145883334Y-129332857D01*
X145883334Y-129475714D01*
X145835715Y-129570952D01*
X145788096Y-129618571D01*
X145692858Y-129666190D01*
X145311905Y-129666190D01*
X146359524Y-130142381D02*
X146550000Y-130142381D01*
X146645239Y-130094762D01*
X146692858Y-130047143D01*
X146788096Y-129904286D01*
X146835715Y-129713810D01*
X146835715Y-129332857D01*
X146788096Y-129237619D01*
X146740477Y-129190000D01*
X146645239Y-129142381D01*
X146454762Y-129142381D01*
X146359524Y-129190000D01*
X146311905Y-129237619D01*
X146264286Y-129332857D01*
X146264286Y-129570952D01*
X146311905Y-129666190D01*
X146359524Y-129713810D01*
X146454762Y-129761429D01*
X146645239Y-129761429D01*
X146740477Y-129713810D01*
X146788096Y-129666190D01*
X146835715Y-129570952D01*
X168814762Y-99007619D02*
X168719524Y-98960000D01*
X168624286Y-98864762D01*
X168481429Y-98721905D01*
X168386190Y-98674286D01*
X168290952Y-98674286D01*
X168338571Y-98912381D02*
X168243333Y-98864762D01*
X168148095Y-98769524D01*
X168100476Y-98579048D01*
X168100476Y-98245714D01*
X168148095Y-98055238D01*
X168243333Y-97960000D01*
X168338571Y-97912381D01*
X168529048Y-97912381D01*
X168624286Y-97960000D01*
X168719524Y-98055238D01*
X168767143Y-98245714D01*
X168767143Y-98579048D01*
X168719524Y-98769524D01*
X168624286Y-98864762D01*
X168529048Y-98912381D01*
X168338571Y-98912381D01*
X169719524Y-98912381D02*
X169148095Y-98912381D01*
X169433809Y-98912381D02*
X169433809Y-97912381D01*
X169338571Y-98055238D01*
X169243333Y-98150476D01*
X169148095Y-98198095D01*
X198024762Y-100327619D02*
X197929524Y-100280000D01*
X197834286Y-100184762D01*
X197691429Y-100041905D01*
X197596190Y-99994286D01*
X197500952Y-99994286D01*
X197548571Y-100232381D02*
X197453333Y-100184762D01*
X197358095Y-100089524D01*
X197310476Y-99899048D01*
X197310476Y-99565714D01*
X197358095Y-99375238D01*
X197453333Y-99280000D01*
X197548571Y-99232381D01*
X197739048Y-99232381D01*
X197834286Y-99280000D01*
X197929524Y-99375238D01*
X197977143Y-99565714D01*
X197977143Y-99899048D01*
X197929524Y-100089524D01*
X197834286Y-100184762D01*
X197739048Y-100232381D01*
X197548571Y-100232381D01*
X198358095Y-99327619D02*
X198405714Y-99280000D01*
X198500952Y-99232381D01*
X198739048Y-99232381D01*
X198834286Y-99280000D01*
X198881905Y-99327619D01*
X198929524Y-99422857D01*
X198929524Y-99518095D01*
X198881905Y-99660952D01*
X198310476Y-100232381D01*
X198929524Y-100232381D01*
X197302381Y-133516666D02*
X196826190Y-133850000D01*
X197302381Y-134088095D02*
X196302381Y-134088095D01*
X196302381Y-133707142D01*
X196350000Y-133611904D01*
X196397619Y-133564285D01*
X196492857Y-133516666D01*
X196635714Y-133516666D01*
X196730952Y-133564285D01*
X196778571Y-133611904D01*
X196826190Y-133707142D01*
X196826190Y-134088095D01*
X197302381Y-132564285D02*
X197302381Y-133135714D01*
X197302381Y-132850000D02*
X196302381Y-132850000D01*
X196445238Y-132945238D01*
X196540476Y-133040476D01*
X196588095Y-133135714D01*
X173823334Y-116022381D02*
X173490000Y-115546190D01*
X173251905Y-116022381D02*
X173251905Y-115022381D01*
X173632858Y-115022381D01*
X173728096Y-115070000D01*
X173775715Y-115117619D01*
X173823334Y-115212857D01*
X173823334Y-115355714D01*
X173775715Y-115450952D01*
X173728096Y-115498571D01*
X173632858Y-115546190D01*
X173251905Y-115546190D01*
X174204286Y-115117619D02*
X174251905Y-115070000D01*
X174347143Y-115022381D01*
X174585239Y-115022381D01*
X174680477Y-115070000D01*
X174728096Y-115117619D01*
X174775715Y-115212857D01*
X174775715Y-115308095D01*
X174728096Y-115450952D01*
X174156667Y-116022381D01*
X174775715Y-116022381D01*
X199223334Y-119832381D02*
X198890000Y-119356190D01*
X198651905Y-119832381D02*
X198651905Y-118832381D01*
X199032858Y-118832381D01*
X199128096Y-118880000D01*
X199175715Y-118927619D01*
X199223334Y-119022857D01*
X199223334Y-119165714D01*
X199175715Y-119260952D01*
X199128096Y-119308571D01*
X199032858Y-119356190D01*
X198651905Y-119356190D01*
X199556667Y-118832381D02*
X200175715Y-118832381D01*
X199842381Y-119213333D01*
X199985239Y-119213333D01*
X200080477Y-119260952D01*
X200128096Y-119308571D01*
X200175715Y-119403810D01*
X200175715Y-119641905D01*
X200128096Y-119737143D01*
X200080477Y-119784762D01*
X199985239Y-119832381D01*
X199699524Y-119832381D01*
X199604286Y-119784762D01*
X199556667Y-119737143D01*
X201763334Y-123642381D02*
X201430000Y-123166190D01*
X201191905Y-123642381D02*
X201191905Y-122642381D01*
X201572858Y-122642381D01*
X201668096Y-122690000D01*
X201715715Y-122737619D01*
X201763334Y-122832857D01*
X201763334Y-122975714D01*
X201715715Y-123070952D01*
X201668096Y-123118571D01*
X201572858Y-123166190D01*
X201191905Y-123166190D01*
X202620477Y-122975714D02*
X202620477Y-123642381D01*
X202382381Y-122594762D02*
X202144286Y-123309048D01*
X202763334Y-123309048D01*
X156043334Y-99512381D02*
X155710000Y-99036190D01*
X155471905Y-99512381D02*
X155471905Y-98512381D01*
X155852858Y-98512381D01*
X155948096Y-98560000D01*
X155995715Y-98607619D01*
X156043334Y-98702857D01*
X156043334Y-98845714D01*
X155995715Y-98940952D01*
X155948096Y-98988571D01*
X155852858Y-99036190D01*
X155471905Y-99036190D01*
X156948096Y-98512381D02*
X156471905Y-98512381D01*
X156424286Y-98988571D01*
X156471905Y-98940952D01*
X156567143Y-98893333D01*
X156805239Y-98893333D01*
X156900477Y-98940952D01*
X156948096Y-98988571D01*
X156995715Y-99083810D01*
X156995715Y-99321905D01*
X156948096Y-99417143D01*
X156900477Y-99464762D01*
X156805239Y-99512381D01*
X156567143Y-99512381D01*
X156471905Y-99464762D01*
X156424286Y-99417143D01*
X159202381Y-108116666D02*
X158726190Y-108450000D01*
X159202381Y-108688095D02*
X158202381Y-108688095D01*
X158202381Y-108307142D01*
X158250000Y-108211904D01*
X158297619Y-108164285D01*
X158392857Y-108116666D01*
X158535714Y-108116666D01*
X158630952Y-108164285D01*
X158678571Y-108211904D01*
X158726190Y-108307142D01*
X158726190Y-108688095D01*
X158202381Y-107259523D02*
X158202381Y-107450000D01*
X158250000Y-107545238D01*
X158297619Y-107592857D01*
X158440476Y-107688095D01*
X158630952Y-107735714D01*
X159011905Y-107735714D01*
X159107143Y-107688095D01*
X159154762Y-107640476D01*
X159202381Y-107545238D01*
X159202381Y-107354761D01*
X159154762Y-107259523D01*
X159107143Y-107211904D01*
X159011905Y-107164285D01*
X158773810Y-107164285D01*
X158678571Y-107211904D01*
X158630952Y-107259523D01*
X158583333Y-107354761D01*
X158583333Y-107545238D01*
X158630952Y-107640476D01*
X158678571Y-107688095D01*
X158773810Y-107735714D01*
X150963334Y-126182381D02*
X150630000Y-125706190D01*
X150391905Y-126182381D02*
X150391905Y-125182381D01*
X150772858Y-125182381D01*
X150868096Y-125230000D01*
X150915715Y-125277619D01*
X150963334Y-125372857D01*
X150963334Y-125515714D01*
X150915715Y-125610952D01*
X150868096Y-125658571D01*
X150772858Y-125706190D01*
X150391905Y-125706190D01*
X151296667Y-125182381D02*
X151963334Y-125182381D01*
X151534762Y-126182381D01*
X150963334Y-141422381D02*
X150630000Y-140946190D01*
X150391905Y-141422381D02*
X150391905Y-140422381D01*
X150772858Y-140422381D01*
X150868096Y-140470000D01*
X150915715Y-140517619D01*
X150963334Y-140612857D01*
X150963334Y-140755714D01*
X150915715Y-140850952D01*
X150868096Y-140898571D01*
X150772858Y-140946190D01*
X150391905Y-140946190D01*
X151534762Y-140850952D02*
X151439524Y-140803333D01*
X151391905Y-140755714D01*
X151344286Y-140660476D01*
X151344286Y-140612857D01*
X151391905Y-140517619D01*
X151439524Y-140470000D01*
X151534762Y-140422381D01*
X151725239Y-140422381D01*
X151820477Y-140470000D01*
X151868096Y-140517619D01*
X151915715Y-140612857D01*
X151915715Y-140660476D01*
X151868096Y-140755714D01*
X151820477Y-140803333D01*
X151725239Y-140850952D01*
X151534762Y-140850952D01*
X151439524Y-140898571D01*
X151391905Y-140946190D01*
X151344286Y-141041429D01*
X151344286Y-141231905D01*
X151391905Y-141327143D01*
X151439524Y-141374762D01*
X151534762Y-141422381D01*
X151725239Y-141422381D01*
X151820477Y-141374762D01*
X151868096Y-141327143D01*
X151915715Y-141231905D01*
X151915715Y-141041429D01*
X151868096Y-140946190D01*
X151820477Y-140898571D01*
X151725239Y-140850952D01*
X167473334Y-105862381D02*
X167140000Y-105386190D01*
X166901905Y-105862381D02*
X166901905Y-104862381D01*
X167282858Y-104862381D01*
X167378096Y-104910000D01*
X167425715Y-104957619D01*
X167473334Y-105052857D01*
X167473334Y-105195714D01*
X167425715Y-105290952D01*
X167378096Y-105338571D01*
X167282858Y-105386190D01*
X166901905Y-105386190D01*
X167949524Y-105862381D02*
X168140000Y-105862381D01*
X168235239Y-105814762D01*
X168282858Y-105767143D01*
X168378096Y-105624286D01*
X168425715Y-105433810D01*
X168425715Y-105052857D01*
X168378096Y-104957619D01*
X168330477Y-104910000D01*
X168235239Y-104862381D01*
X168044762Y-104862381D01*
X167949524Y-104910000D01*
X167901905Y-104957619D01*
X167854286Y-105052857D01*
X167854286Y-105290952D01*
X167901905Y-105386190D01*
X167949524Y-105433810D01*
X168044762Y-105481429D01*
X168235239Y-105481429D01*
X168330477Y-105433810D01*
X168378096Y-105386190D01*
X168425715Y-105290952D01*
X182237143Y-104592381D02*
X181903809Y-104116190D01*
X181665714Y-104592381D02*
X181665714Y-103592381D01*
X182046667Y-103592381D01*
X182141905Y-103640000D01*
X182189524Y-103687619D01*
X182237143Y-103782857D01*
X182237143Y-103925714D01*
X182189524Y-104020952D01*
X182141905Y-104068571D01*
X182046667Y-104116190D01*
X181665714Y-104116190D01*
X183189524Y-104592381D02*
X182618095Y-104592381D01*
X182903809Y-104592381D02*
X182903809Y-103592381D01*
X182808571Y-103735238D01*
X182713333Y-103830476D01*
X182618095Y-103878095D01*
X183808571Y-103592381D02*
X183903810Y-103592381D01*
X183999048Y-103640000D01*
X184046667Y-103687619D01*
X184094286Y-103782857D01*
X184141905Y-103973333D01*
X184141905Y-104211429D01*
X184094286Y-104401905D01*
X184046667Y-104497143D01*
X183999048Y-104544762D01*
X183903810Y-104592381D01*
X183808571Y-104592381D01*
X183713333Y-104544762D01*
X183665714Y-104497143D01*
X183618095Y-104401905D01*
X183570476Y-104211429D01*
X183570476Y-103973333D01*
X183618095Y-103782857D01*
X183665714Y-103687619D01*
X183713333Y-103640000D01*
X183808571Y-103592381D01*
X196207143Y-108402381D02*
X195873809Y-107926190D01*
X195635714Y-108402381D02*
X195635714Y-107402381D01*
X196016667Y-107402381D01*
X196111905Y-107450000D01*
X196159524Y-107497619D01*
X196207143Y-107592857D01*
X196207143Y-107735714D01*
X196159524Y-107830952D01*
X196111905Y-107878571D01*
X196016667Y-107926190D01*
X195635714Y-107926190D01*
X197159524Y-108402381D02*
X196588095Y-108402381D01*
X196873809Y-108402381D02*
X196873809Y-107402381D01*
X196778571Y-107545238D01*
X196683333Y-107640476D01*
X196588095Y-107688095D01*
X198111905Y-108402381D02*
X197540476Y-108402381D01*
X197826190Y-108402381D02*
X197826190Y-107402381D01*
X197730952Y-107545238D01*
X197635714Y-107640476D01*
X197540476Y-107688095D01*
X182237143Y-109672381D02*
X181903809Y-109196190D01*
X181665714Y-109672381D02*
X181665714Y-108672381D01*
X182046667Y-108672381D01*
X182141905Y-108720000D01*
X182189524Y-108767619D01*
X182237143Y-108862857D01*
X182237143Y-109005714D01*
X182189524Y-109100952D01*
X182141905Y-109148571D01*
X182046667Y-109196190D01*
X181665714Y-109196190D01*
X183189524Y-109672381D02*
X182618095Y-109672381D01*
X182903809Y-109672381D02*
X182903809Y-108672381D01*
X182808571Y-108815238D01*
X182713333Y-108910476D01*
X182618095Y-108958095D01*
X183570476Y-108767619D02*
X183618095Y-108720000D01*
X183713333Y-108672381D01*
X183951429Y-108672381D01*
X184046667Y-108720000D01*
X184094286Y-108767619D01*
X184141905Y-108862857D01*
X184141905Y-108958095D01*
X184094286Y-109100952D01*
X183522857Y-109672381D01*
X184141905Y-109672381D01*
X196207143Y-96972381D02*
X195873809Y-96496190D01*
X195635714Y-96972381D02*
X195635714Y-95972381D01*
X196016667Y-95972381D01*
X196111905Y-96020000D01*
X196159524Y-96067619D01*
X196207143Y-96162857D01*
X196207143Y-96305714D01*
X196159524Y-96400952D01*
X196111905Y-96448571D01*
X196016667Y-96496190D01*
X195635714Y-96496190D01*
X197159524Y-96972381D02*
X196588095Y-96972381D01*
X196873809Y-96972381D02*
X196873809Y-95972381D01*
X196778571Y-96115238D01*
X196683333Y-96210476D01*
X196588095Y-96258095D01*
X197492857Y-95972381D02*
X198111905Y-95972381D01*
X197778571Y-96353333D01*
X197921429Y-96353333D01*
X198016667Y-96400952D01*
X198064286Y-96448571D01*
X198111905Y-96543810D01*
X198111905Y-96781905D01*
X198064286Y-96877143D01*
X198016667Y-96924762D01*
X197921429Y-96972381D01*
X197635714Y-96972381D01*
X197540476Y-96924762D01*
X197492857Y-96877143D01*
X182237143Y-99512381D02*
X181903809Y-99036190D01*
X181665714Y-99512381D02*
X181665714Y-98512381D01*
X182046667Y-98512381D01*
X182141905Y-98560000D01*
X182189524Y-98607619D01*
X182237143Y-98702857D01*
X182237143Y-98845714D01*
X182189524Y-98940952D01*
X182141905Y-98988571D01*
X182046667Y-99036190D01*
X181665714Y-99036190D01*
X183189524Y-99512381D02*
X182618095Y-99512381D01*
X182903809Y-99512381D02*
X182903809Y-98512381D01*
X182808571Y-98655238D01*
X182713333Y-98750476D01*
X182618095Y-98798095D01*
X184046667Y-98845714D02*
X184046667Y-99512381D01*
X183808571Y-98464762D02*
X183570476Y-99179048D01*
X184189524Y-99179048D01*
X142613334Y-105562381D02*
X142137143Y-105562381D01*
X142137143Y-104562381D01*
X142946667Y-105562381D02*
X142946667Y-104562381D01*
X143280001Y-105276667D01*
X143613334Y-104562381D01*
X143613334Y-105562381D01*
X144613334Y-105562381D02*
X144041905Y-105562381D01*
X144327619Y-105562381D02*
X144327619Y-104562381D01*
X144232381Y-104705238D01*
X144137143Y-104800476D01*
X144041905Y-104848095D01*
X145565715Y-105562381D02*
X144994286Y-105562381D01*
X145280000Y-105562381D02*
X145280000Y-104562381D01*
X145184762Y-104705238D01*
X145089524Y-104800476D01*
X144994286Y-104848095D01*
X146518096Y-105562381D02*
X145946667Y-105562381D01*
X146232381Y-105562381D02*
X146232381Y-104562381D01*
X146137143Y-104705238D01*
X146041905Y-104800476D01*
X145946667Y-104848095D01*
X146851429Y-104562381D02*
X147518096Y-104562381D01*
X147089524Y-105562381D01*
X143018095Y-94902381D02*
X143684762Y-94902381D01*
X143256190Y-95902381D01*
X144208571Y-95330952D02*
X144113333Y-95283333D01*
X144065714Y-95235714D01*
X144018095Y-95140476D01*
X144018095Y-95092857D01*
X144065714Y-94997619D01*
X144113333Y-94950000D01*
X144208571Y-94902381D01*
X144399048Y-94902381D01*
X144494286Y-94950000D01*
X144541905Y-94997619D01*
X144589524Y-95092857D01*
X144589524Y-95140476D01*
X144541905Y-95235714D01*
X144494286Y-95283333D01*
X144399048Y-95330952D01*
X144208571Y-95330952D01*
X144113333Y-95378571D01*
X144065714Y-95426190D01*
X144018095Y-95521429D01*
X144018095Y-95711905D01*
X144065714Y-95807143D01*
X144113333Y-95854762D01*
X144208571Y-95902381D01*
X144399048Y-95902381D01*
X144494286Y-95854762D01*
X144541905Y-95807143D01*
X144589524Y-95711905D01*
X144589524Y-95521429D01*
X144541905Y-95426190D01*
X144494286Y-95378571D01*
X144399048Y-95330952D01*
X145208571Y-94902381D02*
X145303810Y-94902381D01*
X145399048Y-94950000D01*
X145446667Y-94997619D01*
X145494286Y-95092857D01*
X145541905Y-95283333D01*
X145541905Y-95521429D01*
X145494286Y-95711905D01*
X145446667Y-95807143D01*
X145399048Y-95854762D01*
X145303810Y-95902381D01*
X145208571Y-95902381D01*
X145113333Y-95854762D01*
X145065714Y-95807143D01*
X145018095Y-95711905D01*
X144970476Y-95521429D01*
X144970476Y-95283333D01*
X145018095Y-95092857D01*
X145065714Y-94997619D01*
X145113333Y-94950000D01*
X145208571Y-94902381D01*
X146446667Y-94902381D02*
X145970476Y-94902381D01*
X145922857Y-95378571D01*
X145970476Y-95330952D01*
X146065714Y-95283333D01*
X146303810Y-95283333D01*
X146399048Y-95330952D01*
X146446667Y-95378571D01*
X146494286Y-95473810D01*
X146494286Y-95711905D01*
X146446667Y-95807143D01*
X146399048Y-95854762D01*
X146303810Y-95902381D01*
X146065714Y-95902381D01*
X145970476Y-95854762D01*
X145922857Y-95807143D01*
X168060952Y-149312381D02*
X168060952Y-148312381D01*
X168299047Y-148312381D01*
X168441905Y-148360000D01*
X168537143Y-148455238D01*
X168584762Y-148550476D01*
X168632381Y-148740952D01*
X168632381Y-148883810D01*
X168584762Y-149074286D01*
X168537143Y-149169524D01*
X168441905Y-149264762D01*
X168299047Y-149312381D01*
X168060952Y-149312381D01*
X169060952Y-149312381D02*
X169060952Y-148312381D01*
X169060952Y-148788571D02*
X169632381Y-148788571D01*
X169632381Y-149312381D02*
X169632381Y-148312381D01*
X169965714Y-148312381D02*
X170537143Y-148312381D01*
X170251428Y-149312381D02*
X170251428Y-148312381D01*
X171394286Y-149312381D02*
X170822857Y-149312381D01*
X171108571Y-149312381D02*
X171108571Y-148312381D01*
X171013333Y-148455238D01*
X170918095Y-148550476D01*
X170822857Y-148598095D01*
X172346667Y-149312381D02*
X171775238Y-149312381D01*
X172060952Y-149312381D02*
X172060952Y-148312381D01*
X171965714Y-148455238D01*
X171870476Y-148550476D01*
X171775238Y-148598095D01*
X170902381Y-134159524D02*
X171902381Y-133492857D01*
X170902381Y-133492857D02*
X171902381Y-134159524D01*
X171902381Y-132588095D02*
X171902381Y-133159524D01*
X171902381Y-132873810D02*
X170902381Y-132873810D01*
X171045238Y-132969048D01*
X171140476Y-133064286D01*
X171188095Y-133159524D01*
X148701429Y-137088571D02*
X148844286Y-137136190D01*
X148891905Y-137183810D01*
X148939524Y-137279048D01*
X148939524Y-137421905D01*
X148891905Y-137517143D01*
X148844286Y-137564762D01*
X148749048Y-137612381D01*
X148368095Y-137612381D01*
X148368095Y-136612381D01*
X148701429Y-136612381D01*
X148796667Y-136660000D01*
X148844286Y-136707619D01*
X148891905Y-136802857D01*
X148891905Y-136898095D01*
X148844286Y-136993333D01*
X148796667Y-137040952D01*
X148701429Y-137088571D01*
X148368095Y-137088571D01*
X149368095Y-137612381D02*
X149368095Y-136612381D01*
X149701429Y-137326667D01*
X150034762Y-136612381D01*
X150034762Y-137612381D01*
X150510952Y-137612381D02*
X150510952Y-136612381D01*
X150891905Y-136612381D01*
X150987143Y-136660000D01*
X151034762Y-136707619D01*
X151082381Y-136802857D01*
X151082381Y-136945714D01*
X151034762Y-137040952D01*
X150987143Y-137088571D01*
X150891905Y-137136190D01*
X150510952Y-137136190D01*
X152034762Y-137612381D02*
X151463333Y-137612381D01*
X151749047Y-137612381D02*
X151749047Y-136612381D01*
X151653809Y-136755238D01*
X151558571Y-136850476D01*
X151463333Y-136898095D01*
X152606190Y-137040952D02*
X152510952Y-136993333D01*
X152463333Y-136945714D01*
X152415714Y-136850476D01*
X152415714Y-136802857D01*
X152463333Y-136707619D01*
X152510952Y-136660000D01*
X152606190Y-136612381D01*
X152796667Y-136612381D01*
X152891905Y-136660000D01*
X152939524Y-136707619D01*
X152987143Y-136802857D01*
X152987143Y-136850476D01*
X152939524Y-136945714D01*
X152891905Y-136993333D01*
X152796667Y-137040952D01*
X152606190Y-137040952D01*
X152510952Y-137088571D01*
X152463333Y-137136190D01*
X152415714Y-137231429D01*
X152415714Y-137421905D01*
X152463333Y-137517143D01*
X152510952Y-137564762D01*
X152606190Y-137612381D01*
X152796667Y-137612381D01*
X152891905Y-137564762D01*
X152939524Y-137517143D01*
X152987143Y-137421905D01*
X152987143Y-137231429D01*
X152939524Y-137136190D01*
X152891905Y-137088571D01*
X152796667Y-137040952D01*
X153606190Y-136612381D02*
X153701429Y-136612381D01*
X153796667Y-136660000D01*
X153844286Y-136707619D01*
X153891905Y-136802857D01*
X153939524Y-136993333D01*
X153939524Y-137231429D01*
X153891905Y-137421905D01*
X153844286Y-137517143D01*
X153796667Y-137564762D01*
X153701429Y-137612381D01*
X153606190Y-137612381D01*
X153510952Y-137564762D01*
X153463333Y-137517143D01*
X153415714Y-137421905D01*
X153368095Y-137231429D01*
X153368095Y-136993333D01*
X153415714Y-136802857D01*
X153463333Y-136707619D01*
X153510952Y-136660000D01*
X153606190Y-136612381D01*
M02*
